<svg viewBox="0 0 537 850" width="537" height="850" xmlns="http://www.w3.org/2000/svg">
  <g transform="translate(0.5,0.5)">
    <g>
      <text x="35" y="17">counter[0]</text>
      <line x1="0" y1="0" x2="32" y2="20" stroke="black" stroke-linecap="round" stroke-width="2"/>
    </g>
    <g>
      <text x="54" y="37">net_252</text>
      <line x1="32" y1="20" x2="51" y2="40" stroke="black" stroke-linecap="round" stroke-width="2"/>
    </g>
    <g>
      <text x="70" y="57">seg_1_2_local_g1_0_3984</text>
      <line x1="51" y1="40" x2="67" y2="60" stroke="black" stroke-linecap="round" stroke-width="2"/>
    </g>
    <g>
      <text x="83" y="77">net_4010</text>
      <line x1="67" y1="60" x2="80" y2="80" stroke="black" stroke-linecap="round" stroke-width="2"/>
    </g>
    <g>
      <text x="96" y="97">t2</text>
      <line x1="80" y1="80" x2="93" y2="100" stroke="black" stroke-linecap="round" stroke-width="2"/>
    </g>
    <g>
      <text x="102" y="117"> | auto | alumacc.cc:470:replace_alu | 9.C[2]</text>
      <line x1="93" y1="100" x2="99" y2="120" stroke="black" stroke-linecap="round" stroke-width="2"/>
    </g>
    <g>
      <text x="109" y="137">9.C[3]</text>
      <line x1="99" y1="120" x2="106" y2="140" stroke="black" stroke-linecap="round" stroke-width="2"/>
    </g>
    <g>
      <text x="115" y="157">9.C[4]</text>
      <line x1="106" y1="140" x2="112" y2="160" stroke="black" stroke-linecap="round" stroke-width="2"/>
    </g>
    <g>
      <text x="121" y="177">9.C[5]</text>
      <line x1="112" y1="160" x2="118" y2="180" stroke="black" stroke-linecap="round" stroke-width="2"/>
    </g>
    <g>
      <text x="128" y="197">9.C[6]</text>
      <line x1="118" y1="180" x2="125" y2="200" stroke="black" stroke-linecap="round" stroke-width="2"/>
    </g>
    <g>
      <text x="134" y="217">9.C[7]</text>
      <line x1="125" y1="200" x2="131" y2="220" stroke="black" stroke-linecap="round" stroke-width="2"/>
    </g>
    <g>
      <text x="140" y="237">9.C[8]</text>
      <line x1="131" y1="220" x2="137" y2="240" stroke="black" stroke-linecap="round" stroke-width="2"/>
    </g>
    <g>
      <rect x="93" y="100" width="44" height="140" fill-opacity="0.2"/>
      <rect x="93" y="100" width="44" height="140" fill-opacity="0.2"/>
      <rect x="93" y="100" width="44" height="140" fill-opacity="0.2"/>
      <text x="150" y="257">net_4106</text>
      <line x1="137" y1="240" x2="147" y2="260" stroke="black" stroke-linecap="round" stroke-width="2"/>
    </g>
    <g>
      <text x="156" y="277"> | auto | alumacc.cc:470:replace_alu | 9.C[9]</text>
      <line x1="147" y1="260" x2="153" y2="280" stroke="black" stroke-linecap="round" stroke-width="2"/>
    </g>
    <g>
      <text x="163" y="297">9.C[10]</text>
      <line x1="153" y1="280" x2="160" y2="300" stroke="black" stroke-linecap="round" stroke-width="2"/>
    </g>
    <g>
      <text x="169" y="317">9.C[11]</text>
      <line x1="160" y1="300" x2="166" y2="320" stroke="black" stroke-linecap="round" stroke-width="2"/>
    </g>
    <g>
      <text x="175" y="337">9.C[12]</text>
      <line x1="166" y1="320" x2="172" y2="340" stroke="black" stroke-linecap="round" stroke-width="2"/>
    </g>
    <g>
      <text x="182" y="357">9.C[13]</text>
      <line x1="172" y1="340" x2="179" y2="360" stroke="black" stroke-linecap="round" stroke-width="2"/>
    </g>
    <g>
      <text x="188" y="377">9.C[14]</text>
      <line x1="179" y1="360" x2="185" y2="380" stroke="black" stroke-linecap="round" stroke-width="2"/>
    </g>
    <g>
      <text x="194" y="397">9.C[15]</text>
      <line x1="185" y1="380" x2="191" y2="400" stroke="black" stroke-linecap="round" stroke-width="2"/>
    </g>
    <g>
      <text x="201" y="417">9.C[16]</text>
      <line x1="191" y1="400" x2="198" y2="420" stroke="black" stroke-linecap="round" stroke-width="2"/>
    </g>
    <g>
      <rect x="147" y="260" width="51" height="160" fill-opacity="0.2"/>
      <rect x="147" y="260" width="51" height="160" fill-opacity="0.2"/>
      <rect x="147" y="260" width="51" height="160" fill-opacity="0.2"/>
      <text x="210" y="437">net_4241</text>
      <line x1="198" y1="420" x2="207" y2="440" stroke="black" stroke-linecap="round" stroke-width="2"/>
    </g>
    <g>
      <text x="217" y="457"> | auto | alumacc.cc:470:replace_alu | 9.C[17]</text>
      <line x1="207" y1="440" x2="214" y2="460" stroke="black" stroke-linecap="round" stroke-width="2"/>
    </g>
    <g>
      <text x="223" y="477">9.C[18]</text>
      <line x1="214" y1="460" x2="220" y2="480" stroke="black" stroke-linecap="round" stroke-width="2"/>
    </g>
    <g>
      <text x="229" y="497">9.C[19]</text>
      <line x1="220" y1="480" x2="226" y2="500" stroke="black" stroke-linecap="round" stroke-width="2"/>
    </g>
    <g>
      <text x="236" y="517">9.C[20]</text>
      <line x1="226" y1="500" x2="233" y2="520" stroke="black" stroke-linecap="round" stroke-width="2"/>
    </g>
    <g>
      <text x="242" y="537">9.C[21]</text>
      <line x1="233" y1="520" x2="239" y2="540" stroke="black" stroke-linecap="round" stroke-width="2"/>
    </g>
    <g>
      <text x="248" y="557">9.C[22]</text>
      <line x1="239" y1="540" x2="245" y2="560" stroke="black" stroke-linecap="round" stroke-width="2"/>
    </g>
    <g>
      <text x="255" y="577">9.C[23]</text>
      <line x1="245" y1="560" x2="252" y2="580" stroke="black" stroke-linecap="round" stroke-width="2"/>
    </g>
    <g>
      <text x="261" y="597">9.C[24]</text>
      <line x1="252" y1="580" x2="258" y2="600" stroke="black" stroke-linecap="round" stroke-width="2"/>
    </g>
    <g>
      <rect x="207" y="440" width="51" height="160" fill-opacity="0.2"/>
      <rect x="207" y="440" width="51" height="160" fill-opacity="0.2"/>
      <rect x="207" y="440" width="51" height="160" fill-opacity="0.2"/>
      <text x="271" y="617">net_4376</text>
      <line x1="258" y1="600" x2="268" y2="620" stroke="black" stroke-linecap="round" stroke-width="2"/>
    </g>
    <g>
      <text x="277" y="637"> | auto | alumacc.cc:470:replace_alu | 9.C[25]</text>
      <line x1="268" y1="620" x2="274" y2="640" stroke="black" stroke-linecap="round" stroke-width="2"/>
    </g>
    <g>
      <text x="283" y="657">9.C[26]</text>
      <line x1="274" y1="640" x2="280" y2="660" stroke="black" stroke-linecap="round" stroke-width="2"/>
    </g>
    <g>
      <text x="290" y="677">9.C[27]</text>
      <line x1="280" y1="660" x2="287" y2="680" stroke="black" stroke-linecap="round" stroke-width="2"/>
    </g>
    <g>
      <text x="296" y="697">9.C[28]</text>
      <line x1="287" y1="680" x2="293" y2="700" stroke="black" stroke-linecap="round" stroke-width="2"/>
    </g>
    <g>
      <text x="302" y="717">9.C[29] | 2</text>
      <line x1="293" y1="700" x2="299" y2="720" stroke="black" stroke-linecap="round" stroke-width="2"/>
    </g>
    <g>
      <rect x="268" y="620" width="31" height="100" fill-opacity="0.2"/>
      <rect x="268" y="620" width="31" height="100" fill-opacity="0.2"/>
      <rect x="268" y="620" width="31" height="100" fill-opacity="0.2"/>
      <rect x="293" y="700" width="6" height="20" fill-opacity="0.2"/>
      <text x="315" y="737">net_4447</text>
      <line x1="299" y1="720" x2="312" y2="740" stroke="black" stroke-linecap="round" stroke-width="2"/>
    </g>
    <g>
      <text x="331" y="757"> | auto | alumacc.cc:470:replace_alu | 9.C[29]</text>
      <line x1="312" y1="740" x2="328" y2="760" stroke="black" stroke-linecap="round" stroke-width="2"/>
    </g>
    <g>
      <rect x="312" y="740" width="16" height="20" fill-opacity="0.2"/>
      <rect x="312" y="740" width="16" height="20" fill-opacity="0.2"/>
      <rect x="312" y="740" width="16" height="20" fill-opacity="0.2"/>
      <text x="350" y="777">net_4232</text>
      <line x1="328" y1="760" x2="347" y2="780" stroke="black" stroke-linecap="round" stroke-width="2"/>
    </g>
    <g>
      <text x="366" y="797">seg_1_7_local_g0_2_4653</text>
      <line x1="347" y1="780" x2="363" y2="800" stroke="black" stroke-linecap="round" stroke-width="2"/>
    </g>
    <g>
      <text x="379" y="817"> | auto | alumacc.cc:470:replace_alu | 9.C[29]</text>
      <line x1="363" y1="800" x2="376" y2="820" stroke="black" stroke-linecap="round" stroke-width="2"/>
    </g>
    <g>
      <rect x="363" y="800" width="13" height="20" fill-opacity="0.2"/>
      <rect x="363" y="800" width="13" height="20" fill-opacity="0.2"/>
      <rect x="363" y="800" width="13" height="20" fill-opacity="0.2"/>
      <text x="390" y="837">counter[29]</text>
      <line x1="376" y1="820" x2="387" y2="840" stroke="black" stroke-linecap="round" stroke-width="2"/>
    </g>
    <g>
      <rect x="0" y="0" width="387" height="840" stroke="#35f" fill="none"/>
      <line x1="50" y1="0" x2="50" y2="840" stroke="#35f" stroke-dasharray="5, 5"/>
      <line x1="100" y1="0" x2="100" y2="840" stroke="#35f" stroke-dasharray="5, 5"/>
      <line x1="150" y1="0" x2="150" y2="840" stroke="#35f" stroke-dasharray="5, 5"/>
      <line x1="200" y1="0" x2="200" y2="840" stroke="#35f" stroke-dasharray="5, 5"/>
      <line x1="250" y1="0" x2="250" y2="840" stroke="#35f" stroke-dasharray="5, 5"/>
      <line x1="300" y1="0" x2="300" y2="840" stroke="#35f" stroke-dasharray="5, 5"/>
      <line x1="350" y1="0" x2="350" y2="840" stroke="#35f" stroke-dasharray="5, 5"/>
    </g>
  </g>
</svg>

